<svg width="10" height="9" viewBox="0 0 10 9" fill="none" xmlns="http://www.w3.org/2000/svg">
<path d="M7.14385 0.588013C6.73565 0.59437 6.33636 0.708461 5.9863 0.918764C5.63623 1.12907 5.34779 1.42814 5.1501 1.78577C4.9524 1.42814 4.66396 1.12907 4.31389 0.918764C3.96383 0.708461 3.56454 0.59437 3.15635 0.588013C2.50564 0.61632 1.89256 0.901336 1.45107 1.38079C1.00957 1.86025 0.775535 2.49517 0.800095 3.14685C0.800095 5.60588 4.77165 8.44601 4.94057 8.56651L5.1501 8.71496L5.35962 8.56651C5.52855 8.44674 9.5001 5.60588 9.5001 3.14685C9.52466 2.49517 9.29062 1.86025 8.84912 1.38079C8.40763 0.901336 7.79455 0.61632 7.14385 0.588013V0.588013Z" fill="white"/>
<path d="M7.14385 0.588013C6.73565 0.59437 6.33636 0.708461 5.9863 0.918764C5.63623 1.12907 5.34779 1.42814 5.1501 1.78577C4.9524 1.42814 4.66396 1.12907 4.31389 0.918764C3.96383 0.708461 3.56454 0.59437 3.15635 0.588013C2.50564 0.61632 1.89256 0.901336 1.45107 1.38079C1.00957 1.86025 0.775535 2.49517 0.800095 3.14685C0.800095 5.60588 4.77165 8.44601 4.94057 8.56651L5.1501 8.71496L5.35962 8.56651C5.52855 8.44674 9.5001 5.60588 9.5001 3.14685C9.52466 2.49517 9.29062 1.86025 8.84912 1.38079C8.40763 0.901336 7.79455 0.61632 7.14385 0.588013V0.588013Z" fill="black" fill-opacity="0.2"/>
</svg>
