<svg width="17" height="18" viewBox="0 0 17 18" fill="none" xmlns="http://www.w3.org/2000/svg">
<path d="M3.99215 14.9558C3.10059 14.0632 2.49344 12.9258 2.24747 11.6876C2.00149 10.4494 2.12774 9.16604 2.61026 7.9997C3.09277 6.83336 3.90987 5.83647 4.95823 5.1351C6.00659 4.43373 7.23913 4.05937 8.49998 4.05937C9.76083 4.05937 10.9934 4.43373 12.0417 5.1351C13.0901 5.83647 13.9072 6.83336 14.3897 7.9997C14.8722 9.16604 14.9985 10.4494 14.7525 11.6876C14.5065 12.9258 13.8994 14.0632 13.0078 14.9558L14.0094 15.9587C14.734 15.2351 15.3086 14.3752 15.7003 13.4285C16.092 12.4819 16.2929 11.467 16.2916 10.4423C16.2916 6.1338 12.8031 2.64087 8.49998 2.64087C4.19686 2.64087 0.708313 6.1338 0.708313 10.4423C0.708313 12.597 1.58027 14.5473 2.99056 15.9587L3.99215 14.9558Z" fill="#159643"/>
<path d="M12.0062 13.953C12.6996 13.2587 13.1718 12.3741 13.3631 11.4111C13.5543 10.4481 13.4561 9.44987 13.0808 8.54274C12.7055 7.63562 12.07 6.86029 11.2546 6.3148C10.4392 5.7693 9.4806 5.47815 8.49996 5.47815C7.51932 5.47815 6.56069 5.7693 5.74531 6.3148C4.92993 6.86029 4.29441 7.63562 3.91911 8.54274C3.54381 9.44987 3.44559 10.4481 3.63686 11.4111C3.82814 12.3741 4.30033 13.2587 4.99371 13.953L5.996 12.9502C5.50069 12.4542 5.16337 11.8224 5.02671 11.1345C4.89004 10.4466 4.96018 9.73361 5.22824 9.08564C5.49629 8.43767 5.95024 7.88384 6.53266 7.49418C7.11509 7.10452 7.79984 6.89655 8.50031 6.89655C9.20079 6.89655 9.88554 7.10452 10.468 7.49418C11.0504 7.88384 11.5043 8.43767 11.7724 9.08564C12.0405 9.73361 12.1106 10.4466 11.9739 11.1345C11.8373 11.8224 11.4999 12.4542 11.0046 12.9502L12.0062 13.953Z" fill="#159643"/>
<path d="M10.0024 11.9466C10.2995 11.649 10.5019 11.2699 10.5838 10.8572C10.6658 10.4445 10.6237 10.0167 10.4628 9.62794C10.302 9.23918 10.0296 8.9069 9.68018 8.67313C9.33074 8.43935 8.91991 8.31458 8.49964 8.31458C8.07937 8.31458 7.66853 8.43935 7.31909 8.67313C6.96964 8.9069 6.69727 9.23918 6.53643 9.62794C6.37558 10.0167 6.33348 10.4445 6.41544 10.8572C6.4974 11.2699 6.69976 11.649 6.99691 11.9466L7.9992 10.9438C7.90011 10.8446 7.83263 10.7182 7.80528 10.5806C7.77793 10.4431 7.79195 10.3004 7.84555 10.1708C7.89916 10.0412 7.98995 9.93045 8.10644 9.85251C8.22293 9.77457 8.35988 9.73297 8.49999 9.73297C8.64009 9.73297 8.77705 9.77457 8.89354 9.85251C9.01003 9.93045 9.10082 10.0412 9.15442 10.1708C9.20803 10.3004 9.22205 10.4431 9.1947 10.5806C9.16735 10.7182 9.09986 10.8446 9.00078 10.9438L10.0024 11.9466Z" fill="#159643"/>
</svg>
